Coordinates
version=1
nRows=17
nColumns=40
inDegrees=yes

Units are S.I. units (second, meters, Newtons, ...)
If the header above contains a line with 'inDegrees', this indicates whether rotational values are in degrees (yes) or radians (no).

endheader
time	pelvis_tilt	pelvis_list	pelvis_rotation	pelvis_tx	pelvis_ty	pelvis_tz	hip_flexion_r	hip_adduction_r	hip_rotation_r	knee_angle_r	knee_angle_r_beta	ankle_angle_r	subtalar_angle_r	mtp_angle_r	hip_flexion_l	hip_adduction_l	hip_rotation_l	knee_angle_l	knee_angle_l_beta	ankle_angle_l	subtalar_angle_l	mtp_angle_l	lumbar_extension	lumbar_bending	lumbar_rotation	arm_flex_r	arm_add_r	arm_rot_r	elbow_flex_r	pro_sup_r	wrist_flex_r	wrist_dev_r	arm_flex_l	arm_add_l	arm_rot_l	elbow_flex_l	pro_sup_l	wrist_flex_l	wrist_dev_l
      3.53500000	    -16.48170156	      3.64964879	     13.78211929	     -1.26846046	      1.00383260	      0.31362291	     16.90840583	     -6.23380930	    -18.00874334	    101.01394692	      1.76302596	      1.96257174	      0.00000000	      0.00000000	     28.33377749	      6.28257873	      1.52744185	     38.27619648	      0.66804565	     20.90350519	      0.00000000	      0.00000000	     -7.94899696	     -3.86989944	     -4.33976926	    -15.92973756	     -8.79771105	    -17.52702999	     61.64116136	     88.31948911	      0.00000000	      0.00000000	     25.69369110	    -16.29870228	     28.43831193	     72.13534821	     88.02941175	      0.00000000	      0.00000000
      3.54000000	    -16.66819817	      2.96641725	     14.53093525	     -1.23810976	      1.00151107	      0.31112388	     19.85766324	     -6.48006499	    -17.90075504	    102.97146902	      1.79719117	      3.19336040	      0.00000000	      0.00000000	     26.62816817	      5.67590291	      2.34997258	     38.22040976	      0.66707199	     22.57026018	      0.00000000	      0.00000000	     -7.46864580	     -3.19488542	     -5.49583712	    -18.83988207	     -8.90622750	    -19.91761211	     62.04262329	     88.30355759	      0.00000000	      0.00000000	     27.90560463	    -14.78509928	     29.33315889	     73.31491888	     88.01274660	      0.00000000	      0.00000000
      3.54500000	    -16.64808695	      2.30707964	     14.98080509	     -1.20708379	      0.99988514	      0.30914321	     22.65718491	     -6.57152653	    -17.47118727	    104.48948177	      1.82368549	      4.15874425	      0.00000000	      0.00000000	     24.52899440	      4.80669433	      2.86711523	     37.71886034	      0.65831830	     23.57200434	      0.00000000	      0.00000000	     -7.18358926	     -2.47462342	     -6.88471756	    -21.42816156	     -9.19751477	    -21.76768256	     62.47501367	     88.16075253	      0.00000000	      0.00000000	     29.49698220	    -13.68929538	     29.37598806	     75.25621136	     87.91679252	      0.00000000	      0.00000000
      3.55000000	    -17.52302216	      1.32539334	     15.73316749	     -1.17777541	      0.99660570	      0.30663921	     26.68122252	     -6.80666324	    -17.28380484	    106.02978918	      1.85056893	      5.34416690	      0.00000000	      0.00000000	     23.80658917	      3.97663765	      3.71822501	     37.74460143	      0.65876757	     24.52644525	      0.00000000	      0.00000000	     -5.86915011	     -1.64463387	     -7.65145512	    -24.67315967	     -9.07609692	    -24.81886671	     63.33190236	     88.28717146	      0.00000000	      0.00000000	     31.98893774	    -12.02798911	     30.68340531	     75.99921970	     87.99994219	      0.00000000	      0.00000000
      3.55500000	    -18.20884177	      0.43132424	     16.03959210	     -1.14768958	      0.99400461	      0.30479230	     30.55699657	     -6.86321844	    -16.65119658	    107.10985242	      1.86941959	      6.36994336	      0.00000000	      0.00000000	     22.65641513	      2.94924113	      4.19346824	     37.27926677	      0.65064595	     24.93158121	      0.00000000	      0.00000000	     -4.74780732	     -0.85195812	     -8.50334070	    -27.56445165	     -9.14683155	    -27.29257951	     64.14549531	     88.27495300	      0.00000000	      0.00000000	     33.88920668	    -10.78618569	     31.19293303	     77.41873783	     87.98903137	      0.00000000	      0.00000000
      3.56000000	    -18.35772608	     -0.37401861	     16.24160548	     -1.11645459	      0.99267525	      0.30309182	     33.71475003	     -6.79609857	    -16.03113391	    107.60433558	      1.87804995	      7.17917446	      0.00000000	      0.00000000	     20.65338776	      1.74522924	      4.56257119	     36.19388644	      0.63170249	     24.66790911	      0.00000000	      0.00000000	     -4.17383305	      0.02982384	     -9.61215316	    -30.16698833	     -9.44061386	    -29.26168683	     64.92012545	     88.17903969	      0.00000000	      0.00000000	     35.44067721	     -9.90344506	     31.22211708	     79.26050194	     87.98732819	      0.00000000	      0.00000000
      3.56500000	    -19.93482253	     -1.32438526	     16.03257184	     -1.08711848	      0.98885094	      0.30197229	     38.86312554	     -6.72451832	    -14.82144970	    108.23576077	      1.88907039	      8.06585429	      0.00000000	      0.00000000	     20.50551590	      0.70289342	      4.61796331	     35.66259658	      0.62242973	     24.34507906	      0.00000000	      0.00000000	     -2.07921873	      0.65535565	     -9.62762962	    -33.31267807	     -9.16544462	    -32.25303105	     66.01880709	     88.23511052	      0.00000000	      0.00000000	     37.46962269	     -8.56661319	     32.08667734	     80.23978109	     87.94068208	      0.00000000	      0.00000000
      3.57000000	    -20.71101367	     -2.12007910	     15.81392553	     -1.05633126	      0.98667150	      0.30081123	     42.85329830	     -6.54010783	    -13.80915874	    108.22915887	      1.88895517	      8.93374647	      0.00000000	      0.00000000	     19.15888144	     -0.43969159	      4.76601177	     34.45836932	      0.60141200	     23.34984058	      0.00000000	      0.00000000	     -0.83624401	      1.39834231	     -9.90437320	    -36.14081628	     -9.04092973	    -34.74857436	     67.04719871	     88.21296022	      0.00000000	      0.00000000	     39.25615154	     -7.55393286	     32.64914406	     81.47551996	     87.92576594	      0.00000000	      0.00000000
      3.57500000	    -21.76122500	     -2.80793107	     15.25246077	     -1.02533738	      0.98434446	      0.30005940	     47.13865635	     -6.22858138	    -12.49339515	    107.89732990	      1.88316366	      9.48188928	      0.00000000	      0.00000000	     17.95334412	     -1.49474414	      4.60889023	     33.00946577	      0.57612386	     21.79537834	      0.00000000	      0.00000000	      0.67939488	      2.00070388	     -9.94615549	    -38.88808643	     -8.94033634	    -37.08635264	     68.09641445	     88.22193008	      0.00000000	      0.00000000	     40.84250940	     -6.72928116	     33.13749755	     82.75373726	     87.87954355	      0.00000000	      0.00000000
      3.58000000	    -22.14549747	     -3.65190024	     15.04227548	     -0.99360177	      0.98330428	      0.29886854	     50.40222755	     -5.89396357	    -11.87321303	    106.99651608	      1.86744149	     10.08519889	      0.00000000	      0.00000000	     16.00831736	     -2.76795160	      5.04176010	     31.24563033	      0.54533913	     19.79537464	      0.00000000	      0.00000000	      1.54539987	      2.99996782	    -10.40438427	    -41.40295122	     -8.88641562	    -39.17005468	     69.24249095	     88.15462024	      0.00000000	      0.00000000	     42.37924906	     -6.10961309	     33.62195906	     84.01364335	     87.87326693	      0.00000000	      0.00000000
      3.58500000	    -23.22863442	     -4.08261633	     13.95494863	     -0.96174759	      0.98125157	      0.29884448	     54.49607662	     -5.26158467	    -10.31197224	    105.95189220	      1.84920937	     10.50449698	      0.00000000	      0.00000000	     14.56529821	     -3.67175236	      4.35444382	     29.43138610	      0.51367459	     16.98464557	      0.00000000	      0.00000000	      3.05821204	      3.43166024	     -9.77220826	    -44.02851919	     -8.55286377	    -41.40717991	     70.29360150	     88.21362700	      0.00000000	      0.00000000	     43.88747236	     -5.43154372	     34.42920804	     84.93193603	     87.80487002	      0.00000000	      0.00000000
      3.59000000	    -23.73452895	     -4.87646468	     13.49955312	     -0.92930168	      0.98043873	      0.29781955	     57.57446490	     -4.79536516	     -9.78512884	    104.32668004	      1.82084406	     10.96625624	      0.00000000	      0.00000000	     12.62572875	     -4.85197616	      4.71746063	     27.39461408	      0.47812621	     13.85285462	      0.00000000	      0.00000000	      4.09031336	      4.44537265	     -9.93299443	    -46.36751454	     -8.34976587	    -43.39194864	     71.43626528	     88.18903182	      0.00000000	      0.00000000	     45.19935450	     -4.96556793	     35.11121370	     85.84643888	     87.77393274	      0.00000000	      0.00000000
      3.59500000	    -24.33245286	     -5.20711084	     12.32042010	     -0.89611877	      0.97967042	      0.29785023	     60.61766513	     -3.99563987	     -8.65398521	    102.43044687	      1.78774855	     11.25350617	      0.00000000	      0.00000000	     10.46268320	     -5.69775890	      3.96394761	     25.09779703	      0.43803919	      9.77805557	      0.00000000	      0.00000000	      5.09263968	      5.02520460	     -9.39609422	    -48.56574298	     -8.16590760	    -45.05325514	     72.53201324	     88.24664211	      0.00000000	      0.00000000	     46.36695209	     -4.74699318	     35.92916659	     86.71223357	     87.71530653	      0.00000000	      0.00000000
      3.60000000	    -24.76826196	     -5.81908785	     11.50927192	     -0.86268682	      0.97934851	      0.29726148	     63.17401923	     -3.36404001	     -8.26414225	    100.09937632	      1.74706370	     11.60439834	      0.00000000	      0.00000000	      8.32241976	     -6.70563122	      3.80795008	     22.86044338	      0.39899001	      5.37546685	      0.00000000	      0.00000000	      6.02525984	      5.97265747	     -9.20162630	    -50.61949418	     -7.95146859	    -46.64593254	     73.64494956	     88.25931087	      0.00000000	      0.00000000	     47.37488452	     -4.54549366	     36.79981026	     87.40622173	     87.68364048	      0.00000000	      0.00000000
      3.60500000	    -24.99032095	     -6.29042340	     10.46860637	     -0.82861164	      0.97946819	      0.29705260	     65.22656444	     -2.53200651	     -7.82245328	     97.42698769	      1.70042172	     11.93180177	      0.00000000	      0.00000000	      5.87500269	     -7.59544253	      3.20311545	     20.53159668	      0.35834396	      0.47432667	      0.00000000	      0.00000000	      6.69808485	      6.87738701	     -8.85323914	    -52.45162465	     -7.77702938	    -48.03512642	     74.88474799	     88.27287485	      0.00000000	      0.00000000	     48.25232876	     -4.61098110	     37.75182277	     87.97423891	     87.66142717	      0.00000000	      0.00000000
      3.61000000	    -25.04858060	     -6.79605068	      9.43473323	     -0.79420863	      0.97993032	      0.29679974	     66.81990767	     -1.70395885	     -7.69441310	     94.40658454	      1.64770574	     12.31010636	      0.00000000	      0.00000000	      3.35619421	     -8.46398137	      2.47493809	     18.32417772	      0.31981723	     -4.68211033	      0.00000000	      0.00000000	      7.19281866	      7.88830705	     -8.41997477	    -54.12498973	     -7.52441974	    -49.34419512	     76.13014358	     88.28392264	      0.00000000	      0.00000000	     49.01471498	     -4.68028074	     38.80977435	     88.33870447	     87.64628026	      0.00000000	      0.00000000
      3.61500000	    -25.41893512	     -7.45674133	      8.73966700	     -0.76001678	      0.98011579	      0.29607481	     68.44472486	     -1.23188306	     -8.04285480	     91.04439892	      1.58902453	     12.69907597	      0.00000000	      0.00000000	      1.54400308	     -9.34001687	      2.04312204	     16.58674492	      0.28949331	     -9.80919261	      0.00000000	      0.00000000	      8.11710286	      8.98409317	     -8.36772061	    -55.64500276	     -7.25668106	    -50.53768744	     77.33403043	     88.28445239	      0.00000000	      0.00000000	     49.54553083	     -4.79892614	     39.91017195	     88.49586786	     87.64143258	      0.00000000	      0.00000000
